{"title":"Carnage 2011 1080p Brrip x264 Ratzz","uid":7083559,"size":1395910288,"categoryP":"video","categoryS":"hd___movies","magnet":"?xt=urn:btih:000d8e6635beffbf070010bd40df12bb73f330f3&amp;dn=Carnage+2011+1080p+Brrip+x264+Ratzz&amp;tr=udp%3A%2F%2Ftracker.openbittorrent.com%3A80&amp;tr=udp%3A%2F%2Fopen.demonii.com%3A1337&amp;tr=udp%3A%2F%2Ftracker.coppersurfer.tk%3A6969&amp;tr=udp%3A%2F%2Fexodus.desync.com%3A6969","seeders":0,"leechers":0,"uploader":"afterratzz","files":7,"time":1331114072,"description":"Encoded by Ratzz.\n\n\n\n\nGeneral\nComplete name                    : Carnage 2011 1080p Brrip x264 Ratzz.mp4\nFormat                           : MP4\nFormat profile                   : Base Media\nCodec ID                         : isom\nFile size                        : 1.30 GiB\nDuration                         : 1h 19mn\nOverall bit rate                 : 2 336 Kbps\n\n\nVideo\nID                               : 1\nFormat                           : AVC\nFormat/Info                      : Advanced Video Codec\nFormat profile                   : &lt;a class=&quot;__cf_email__&quot; href=&quot;/cdn-cgi/l/email-protection&quot; data-cfemail=&quot;5b13323c331b176f756b&quot;&gt;[email&amp;#160;protected]&lt;/a&gt;&lt;script cf-hash='f9e31' type=&quot;text/javascript&quot;&gt;\n/* &lt;![CDATA[ */!function(){try{var t=&quot;currentScript&quot;in document?document.currentScript:function(){for(var t=document.getElementsByTagName(&quot;script&quot;),e=t.length;e--;)if(t[e].getAttribute(&quot;cf-hash&quot;))return t[e]}();if(t&amp;&amp;t.previousSibling){var e,r,n,i,c=t.previousSibling,a=c.getAttribute(&quot;data-cfemail&quot;);if(a){for(e=&quot;&quot;,r=parseInt(a.substr(0,2),16),n=2;a.length-n;n+=2)i=parseInt(a.substr(n,2),16)^r,e+=String.fromCharCode(i);e=document.createTextNode(e),c.parentNode.replaceChild(e,c)}}}catch(u){}}();/* ]]&gt; */&lt;/script&gt;\nFormat settings, CABAC           : Yes\nFormat settings, ReFrames        : 3 frames\nFormat settings, GOP             : M=1, N=48\nCodec ID                         : avc1\nCodec ID/Info                    : Advanced Video Coding\nDuration                         : 1h 19mn\nBit rate mode                    : Variable\nBit rate                         : 2 205 Kbps\nMaximum bit rate                 : 25.0 Mbps\nWidth                            : 1 920 pixels\nHeight                           : 824 pixels\nDisplay aspect ratio             : 2.35:1\nFrame rate mode                  : Constant\nFrame rate                       : 23.976 fps\nColor space                      : YUV\nChroma subsampling               : 4:2:0\nBit depth                        : 8 bits\nScan type                        : Progressive\nBits/(Pixel*Frame)               : 0.058\nStream size                      : 1.23 GiB (94%)\nTitle                            : Carnage 2011 1080p Brrip x264 Ratzz\nWriting library                  : x264 core 120 r2120 0c7dab9\n\n\nAudio\nID                               : 2\nFormat                           : AAC\nFormat/Info                      : Advanced Audio Codec\nFormat profile                   : LC\nCodec ID                         : 40\nDuration                         : 1h 19mn\nBit rate mode                    : Variable\nBit rate                         : 128 Kbps\nMaximum bit rate                 : 133 Kbps\nChannel(s)                       : 2 channels\nChannel positions                : Front: L R\nSampling rate                    : 48.0 KHz\nCompression mode                 : Lossy\nStream size                      : 72.9 MiB (5%)\nLanguage                         : English\n\n\nSubtitles                        : eng .srt included\n\n\n\nScreen shots :\n\n\n &lt;a href=&quot;\nhttp://img208.imageshack.us/img208/2980/image1mce.jpg&quot; rel=&quot;nofollow&quot; target=&quot;_NEW&quot;&gt;\nhttp://img208.imageshack.us/img208/2980/image1mce.jpg&lt;/a&gt;\n &lt;a href=&quot;\nhttp://img17.imageshack.us/img17/7500/image2py.jpg&quot; rel=&quot;nofollow&quot; target=&quot;_NEW&quot;&gt;\nhttp://img17.imageshack.us/img17/7500/image2py.jpg&lt;/a&gt;\n &lt;a href=&quot;\nhttp://img803.imageshack.us/img803/4282/image3ao.jpg&quot; rel=&quot;nofollow&quot; target=&quot;_NEW&quot;&gt;\nhttp://img803.imageshack.us/img803/4282/image3ao.jpg&lt;/a&gt;\n\n\n\nPoster :\n\n &lt;a href=&quot;\nhttp://img812.imageshack.us/img812/1653/carnage20111080pbrripx2.jpg&quot; rel=&quot;nofollow&quot; target=&quot;_NEW&quot;&gt;\nhttp://img812.imageshack.us/img812/1653/carnage20111080pbrripx2.jpg&lt;/a&gt;\n\n\npls seed back after download and provide feedback.\nthank you.","torrent":{"xt":"urn:btih:000d8e6635beffbf070010bd40df12bb73f330f3","amp;dn":"Carnage+2011+1080p+Brrip+x264+Ratzz","amp;tr":["udp%3A%2F%2Ftracker.openbittorrent.com%3A80","udp%3A%2F%2Fopen.demonii.com%3A1337","udp%3A%2F%2Ftracker.coppersurfer.tk%3A6969","udp%3A%2F%2Fexodus.desync.com%3A6969"],"infoHash":"000d8e6635beffbf070010bd40df12bb73f330f3","infoHashBuffer":{"type":"Buffer","data":[0,13,142,102,53,190,255,191,7,0,16,189,64,223,18,187,115,243,48,243]},"announce":[],"urlList":[]}}